<svg width="40" height="40" viewBox="0 0 40 40" fill="none" xmlns="http://www.w3.org/2000/svg">
<circle cx="20" cy="20" r="20" fill="#010101"/>
<path d="M30.0358 13.3148C29.8324 12.5461 28.9593 12.0835 28.1906 12.2887C28.1906 12.2887 22.3454 14.1844 20.2428 14.1844C18.1941 14.1844 12.4011 12.3392 12.4011 12.3392C11.6324 12.1357 10.7611 12.4939 10.5054 13.2626C10.2497 14.0818 10.7106 14.9531 11.5315 15.1583L17.8358 17.0539C18.1437 17.1583 18.4011 17.4644 18.3506 17.8226C18.2984 18.8487 18.1958 21.0539 17.9906 21.8731C17.4776 24.2313 14.6584 30.6905 14.6584 30.6905C14.2984 31.4592 14.6584 32.3305 15.3767 32.6905C15.5819 32.7931 15.7871 32.8435 15.9924 32.8435C16.5558 32.8435 17.1193 32.5339 17.3245 31.9722L20.3471 25.8226L23.2184 32.0261C23.4741 32.5357 23.9854 32.8452 24.5524 32.8452C24.7576 32.8452 24.9611 32.7948 25.168 32.6922C25.9332 32.3322 26.2411 31.4609 25.8845 30.6922C25.8845 30.6922 23.0654 24.2331 22.5506 21.8748C22.3454 21.0539 22.2445 18.8505 22.1924 17.8244C22.1924 17.4661 22.3976 17.16 22.7054 17.0557L29.0097 15.16C29.7802 14.9548 30.2393 14.0818 30.0358 13.3148ZM20.3471 12.6992C21.9332 12.6992 23.2184 11.4139 23.2184 9.82959C23.2184 8.24524 21.9332 6.95654 20.3471 6.95654C18.761 6.95654 17.4758 8.2435 17.4758 9.82785C17.4758 11.4122 18.761 12.6992 20.3471 12.6992Z" fill="white"/>
</svg>
