<?xml version="1.0" encoding="utf-8"?>
<!-- Generator: Adobe Illustrator 27.6.1, SVG Export Plug-In . SVG Version: 6.00 Build 0)  -->
<svg version="1.1" id="Layer_1" xmlns="http://www.w3.org/2000/svg" xmlns:xlink="http://www.w3.org/1999/xlink" x="0px" y="0px"
	 viewBox="0 0 35.25 46.75" style="enable-background:new 0 0 35.25 46.75;" xml:space="preserve">
<style type="text/css">
	.st0{fill:none;}
	.st1{fill:#231F20;}
</style>
<g>
	<circle class="st0" cx="17.82" cy="11.6" r="7.97"/>
	<path class="st0" d="M17.62,23.16c-7.7,0-13.96,6.26-13.96,13.96v6.01h27.93v-6.01C31.59,29.42,25.32,23.16,17.62,23.16z"/>
	<path class="st1" d="M24.37,21.01c2.98-2.08,4.93-5.52,4.93-9.41c0-6.33-5.15-11.47-11.47-11.47S6.35,5.27,6.35,11.6
		c0,3.84,1.9,7.23,4.8,9.31c-6.43,2.58-10.99,8.86-10.99,16.2v7.76c0,0.97,0.78,1.75,1.75,1.75h31.43c0.97,0,1.75-0.78,1.75-1.75
		v-7.76C35.09,29.88,30.66,23.66,24.37,21.01z M17.82,3.62c4.4,0,7.97,3.58,7.97,7.97s-3.58,7.97-7.97,7.97S9.85,16,9.85,11.6
		S13.43,3.62,17.82,3.62z M31.59,43.12H3.66v-6.01c0-7.7,6.26-13.96,13.96-13.96s13.96,6.26,13.96,13.96V43.12z"/>
</g>
</svg>
