<?xml version="1.0" encoding="utf-8"?>
<!-- Generator: Adobe Illustrator 27.6.1, SVG Export Plug-In . SVG Version: 6.00 Build 0)  -->
<svg version="1.1" id="Layer_1" xmlns="http://www.w3.org/2000/svg" xmlns:xlink="http://www.w3.org/1999/xlink" x="0px" y="0px"
	 viewBox="0 0 39.75 46.75" style="enable-background:new 0 0 39.75 46.75;" xml:space="preserve">
<style type="text/css">
	.st0{fill:none;}
	.st1{fill:#231F20;}
</style>
<g>
	<path class="st0" d="M25.07,8.87c0-2.87-2.33-5.2-5.2-5.2s-5.2,2.33-5.2,5.2v2.62h10.4V8.87z"/>
	<path class="st0" d="M28.57,14.99v4.34c0,0.97-0.78,1.75-1.75,1.75s-1.75-0.78-1.75-1.75v-4.34h-10.4v4.34
		c0,0.97-0.78,1.75-1.75,1.75s-1.75-0.78-1.75-1.75v-4.34h-5.2L3.84,43.17h32.06l-2.13-28.18H28.57z"/>
	<path class="st1" d="M37.14,13.1c-0.07-0.91-0.83-1.62-1.74-1.62h-6.83V8.87c0-4.8-3.9-8.7-8.7-8.7s-8.7,3.9-8.7,8.7v2.62H4.35
		c-0.92,0-1.68,0.71-1.75,1.62l-2.4,31.68c-0.04,0.49,0.13,0.96,0.46,1.32c0.33,0.36,0.8,0.56,1.28,0.56h35.84
		c0.49,0,0.95-0.2,1.28-0.56c0.33-0.36,0.5-0.84,0.46-1.32L37.14,13.1z M14.68,8.87c0-2.87,2.33-5.2,5.2-5.2s5.2,2.33,5.2,5.2v2.62
		h-10.4V8.87z M3.84,43.17l2.13-28.18h5.2v4.34c0,0.97,0.78,1.75,1.75,1.75s1.75-0.78,1.75-1.75v-4.34h10.4v4.34
		c0,0.97,0.78,1.75,1.75,1.75s1.75-0.78,1.75-1.75v-4.34h5.2l2.13,28.18H3.84z"/>
</g>
</svg>
