<?xml version="1.0" encoding="utf-8"?>
<!-- Generator: Adobe Illustrator 27.6.1, SVG Export Plug-In . SVG Version: 6.00 Build 0)  -->
<svg version="1.1" id="Layer_1" xmlns="http://www.w3.org/2000/svg" xmlns:xlink="http://www.w3.org/1999/xlink" x="0px" y="0px"
	 viewBox="0 0 73 73" style="enable-background:new 0 0 73 73;" xml:space="preserve">
<style type="text/css">
	.st0{fill:#010101;}
</style>
<path class="st0" d="M72.58,54.48c0.01-0.03,0.02-0.06,0.03-0.09c0.01-0.04,0.03-0.08,0.04-0.13c0.01-0.06,0.01-0.1,0.01-0.16
	c0-0.02,0.01-0.04,0.01-0.07V1.5c0-0.02-0.01-0.04-0.01-0.06c0-0.06-0.01-0.1-0.01-0.16c-0.01-0.04-0.02-0.08-0.04-0.12
	c-0.01-0.03-0.02-0.07-0.03-0.1c-0.01-0.04-0.04-0.08-0.06-0.12c-0.01-0.03-0.03-0.06-0.04-0.08c-0.04-0.06-0.08-0.12-0.14-0.17
	l-0.01-0.01c-0.01-0.01-0.01-0.01-0.02-0.01c-0.05-0.05-0.11-0.09-0.16-0.13c-0.03-0.02-0.06-0.04-0.1-0.06
	c-0.04-0.02-0.06-0.04-0.11-0.06c-0.04-0.01-0.08-0.03-0.13-0.04c-0.03-0.01-0.06-0.02-0.09-0.03c-0.08-0.01-0.15-0.02-0.23-0.02
	H18.97c-0.08,0-0.15,0.01-0.23,0.02c-0.03,0.01-0.06,0.02-0.1,0.03c-0.04,0.01-0.08,0.02-0.13,0.04c-0.03,0.01-0.07,0.03-0.1,0.06
	c-0.03,0.02-0.07,0.03-0.1,0.06c-0.05,0.03-0.09,0.07-0.13,0.11c-0.01,0.01-0.03,0.02-0.04,0.04L0.67,18.15
	c-0.01,0.01-0.03,0.03-0.04,0.05c-0.04,0.04-0.08,0.08-0.1,0.13c-0.02,0.03-0.04,0.08-0.06,0.11c-0.01,0.03-0.03,0.06-0.05,0.09
	c-0.02,0.05-0.03,0.09-0.04,0.14c-0.01,0.03-0.02,0.05-0.02,0.08c-0.01,0.08-0.02,0.15-0.02,0.23V71.5c0,0.64,0.52,1.17,1.17,1.17
	h52.53c0.08,0,0.15-0.01,0.23-0.02c0.04-0.01,0.07-0.02,0.11-0.03c0.03-0.01,0.08-0.02,0.11-0.04c0.04-0.01,0.08-0.04,0.12-0.06
	c0.03-0.01,0.06-0.03,0.08-0.04c0.06-0.04,0.13-0.09,0.18-0.15l17.47-17.47c0.06-0.06,0.1-0.11,0.15-0.18
	c0.01-0.02,0.03-0.05,0.04-0.07C72.54,54.56,72.56,54.52,72.58,54.48z M52.86,70.33H2.67V20.14h50.2L52.86,70.33L52.86,70.33z
	 M19.45,2.67h49.23L53.54,17.8H4.31L19.45,2.67z M55.2,19.46L70.34,4.32v49.23L55.2,68.69V19.46z"/>
<path class="st0" d="M36.19,56.09c1.06,0,1.75-0.06,1.86-0.07c0.08-0.01,0.14-0.03,0.21-0.06c3.02,2.33,5.03,3.54,5.14,3.6
	c0.19,0.11,0.39,0.16,0.6,0.16c0.4,0,0.78-0.2,1-0.57c0.33-0.55,0.15-1.27-0.41-1.6c-0.03-0.01-2.22-1.33-5.43-3.85
	c0.06-3.09-0.29-11.11-5.35-16.17l0,0c-6.24-6.24-16.97-5.33-17.42-5.29c-0.56,0.05-1,0.5-1.06,1.06
	c-0.04,0.45-0.95,11.19,5.29,17.42C25.38,55.49,32.76,56.09,36.19,56.09z M17.61,34.53c2.7-0.05,10.12,0.23,14.55,4.66l0,0
	c3.6,3.6,4.47,9.18,4.63,12.59c-0.18-0.15-0.35-0.29-0.53-0.45c-4.66-4.02-8.09-7.92-8.13-7.97c-0.43-0.48-1.16-0.53-1.64-0.1
	c-0.48,0.43-0.53,1.16-0.11,1.65c0.15,0.16,3.57,4.06,8.36,8.19c0.25,0.22,0.5,0.43,0.75,0.64c-3.31-0.1-9.39-0.82-13.22-4.65
	C17.85,44.65,17.56,37.22,17.61,34.53z"/>
</svg>
