<?xml version="1.0" encoding="utf-8"?>
<!-- Generator: Adobe Illustrator 27.6.1, SVG Export Plug-In . SVG Version: 6.00 Build 0)  -->
<svg version="1.1" id="Layer_1" xmlns="http://www.w3.org/2000/svg" xmlns:xlink="http://www.w3.org/1999/xlink" x="0px" y="0px"
	 viewBox="0 0 89 73" style="enable-background:new 0 0 89 73;" xml:space="preserve">
<style type="text/css">
	.st0{fill:#010101;}
</style>
<g>
	<path class="st0" d="M87.36,42.45c-4.51,0-7.17,2.06-9.73,4.05c-2.84,2.2-5.77,4.47-11.7,4.47s-8.86-2.27-11.7-4.47
		c-2.34-1.81-4.75-3.67-8.56-3.99V32c0.16,0,0.33,0.01,0.52,0.01c3.18,0,10-0.56,14.41-4.96c5.78-5.78,4.94-15.72,4.9-16.13
		c-0.05-0.56-0.5-1-1.06-1.06c-0.42-0.04-10.35-0.88-16.14,4.9c-1.13,1.13-2,2.41-2.68,3.76c-0.22-3.52-1.2-8.92-4.91-12.63l0,0
		c-5.8-5.78-15.74-4.94-16.16-4.9c-0.56,0.05-1,0.5-1.06,1.06c-0.03,0.42-0.88,10.35,4.91,16.14c4.4,4.4,11.22,4.96,14.4,4.96
		c0.19,0,0.36,0,0.52-0.01v5.67c0,0.26,0,0.5,0,0.71V42.5c-3.81,0.32-6.23,2.18-8.57,3.99c-2.83,2.2-5.77,4.47-11.7,4.47
		s-8.86-2.28-11.7-4.47c-2.57-1.99-5.22-4.05-9.73-4.05c-0.64,0-1.17,0.52-1.17,1.17c0,0.64,0.52,1.17,1.17,1.17
		c3.72,0,5.84,1.64,8.3,3.56c3,2.32,6.4,4.96,13.12,4.96l0,0c0,0,0,0,0.01,0c0.01,0,0,0,0.01,0l0,0c6.73,0,10.12-2.63,13.12-4.96
		c2.19-1.69,4.12-3.18,7.13-3.49v7.28c0,0.64,0.53,1.17,1.17,1.17s1.17-0.52,1.17-1.17v-7.28c3.01,0.31,4.94,1.79,7.13,3.49
		c3,2.32,6.4,4.96,13.13,4.96l0,0l0,0l0,0l0,0c6.73,0,10.12-2.63,13.12-4.96c2.46-1.9,4.58-3.56,8.3-3.56
		c0.64,0,1.17-0.53,1.17-1.17C88.53,42.97,88.01,42.45,87.36,42.45z M43.32,20.79c-2.53,0.04-9.23-0.25-13.26-4.27
		c-4.01-4.01-4.32-10.72-4.28-13.26c2.54-0.04,9.25,0.26,13.27,4.27l0,0C43.07,11.55,43.37,18.26,43.32,20.79z M63.2,12.13
		c0.05,2.53-0.24,9.23-4.27,13.26c-4.01,4.02-10.72,4.31-13.27,4.27c-0.05-2.53,0.24-9.23,4.27-13.26
		C53.96,12.39,60.67,12.08,63.2,12.13z"/>
	<circle class="st0" cx="19.22" cy="67.63" r="1.83"/>
	<path class="st0" d="M31.78,59.73c-1.01,0-1.83,0.82-1.83,1.83c0,1.01,0.82,1.83,1.83,1.83c1.01,0,1.83-0.82,1.83-1.83
		C33.61,60.55,32.79,59.73,31.78,59.73z"/>
	<path class="st0" d="M46.38,68.43c-1.01,0-1.83,0.82-1.83,1.83s0.82,1.83,1.83,1.83c1.01,0,1.83-0.82,1.83-1.83
		S47.38,68.43,46.38,68.43z"/>
	<path class="st0" d="M55.06,57.73c-1.01,0-1.83,0.82-1.83,1.83c0,1.01,0.82,1.83,1.83,1.83c1.01,0,1.83-0.82,1.83-1.83
		C56.89,58.55,56.07,57.73,55.06,57.73z"/>
	<circle class="st0" cx="69.48" cy="63.17" r="1.83"/>
</g>
</svg>
