<?xml version="1.0" encoding="utf-8"?>
<!-- Generator: Adobe Illustrator 27.6.1, SVG Export Plug-In . SVG Version: 6.00 Build 0)  -->
<svg version="1.1" id="Layer_1" xmlns="http://www.w3.org/2000/svg" xmlns:xlink="http://www.w3.org/1999/xlink" x="0px" y="0px"
	 viewBox="0 0 40.25 46.75" style="enable-background:new 0 0 40.25 46.75;" xml:space="preserve">
<style type="text/css">
	.st0{fill:none;}
	.st1{fill:#231F20;}
</style>
<g>
	<circle class="st0" cx="20.12" cy="20.11" r="16.49"/>
	<path class="st1" d="M33.08,35.31c4.3-3.67,7.05-9.12,7.05-15.2c-0.01-11.02-8.98-19.99-20-19.99S0.14,9.1,0.14,20.11
		S9.1,40.1,20.12,40.1c3.68,0,7.12-1.02,10.09-2.76l6.78,8.61c0.35,0.44,0.86,0.67,1.38,0.67c0.38,0,0.76-0.12,1.08-0.38
		c0.76-0.6,0.89-1.7,0.29-2.46L33.08,35.31z M3.63,20.11c0-9.09,7.4-16.49,16.49-16.49s16.49,7.4,16.49,16.49S29.22,36.6,20.12,36.6
		S3.63,29.2,3.63,20.11z"/>
</g>
</svg>
