<?xml version="1.0" encoding="utf-8"?>
<!-- Generator: Adobe Illustrator 27.6.1, SVG Export Plug-In . SVG Version: 6.00 Build 0)  -->
<svg version="1.1" id="Layer_1" xmlns="http://www.w3.org/2000/svg" xmlns:xlink="http://www.w3.org/1999/xlink" x="0px" y="0px"
	 viewBox="0 0 43 73" style="enable-background:new 0 0 43 73;" xml:space="preserve">
<style type="text/css">
	.st0{fill:#010101;}
</style>
<g>
	<g>
		<path class="st0" d="M23.02,34.49h-1.38c-16.1,0-21.46-0.54-21.46-3.71c0-0.41,0.12-1,0.69-1.57c0.39-0.38,2.86-2.32,12.86-2.23
			c0.64,0.01,1.16,0.53,1.15,1.18c-0.01,0.64-0.53,1.16-1.17,1.16c-0.01,0-0.01,0-0.01,0C8.58,29.27,3.56,29.94,2.6,30.78
			c1.64,1.38,13.34,1.38,19.05,1.38h1.38c5.72,0,16.28,0,17.41-1.34c-0.88-0.86-6.06-1.55-11.37-1.51c-0.01,0-0.01,0-0.01,0
			c-0.64,0-1.16-0.52-1.17-1.16c-0.01-0.64,0.51-1.17,1.16-1.18c10.19-0.1,12.68,1.85,13.08,2.23c0.57,0.56,0.69,1.16,0.69,1.56
			C42.81,34.17,37.39,34.49,23.02,34.49z"/>
	</g>
	<g>
		<path class="st0" d="M24.33,41.67c-9.44,0-12.78-0.92-12.92-0.96c-0.62-0.17-0.98-0.83-0.8-1.44c0.18-0.62,0.82-0.98,1.44-0.81
			c0.04,0.01,3.28,0.88,12.28,0.88c5.69,0,7.85-0.44,8.65-0.72c-0.53-0.26-1.83-0.67-4.87-0.88c-0.64-0.04-1.13-0.6-1.08-1.25
			c0.04-0.64,0.59-1.14,1.25-1.08c3.64,0.25,7.36,0.84,7.36,3.32C35.62,40.59,33.78,41.67,24.33,41.67z"/>
	</g>
	<g>
		<path class="st0" d="M9.49,72.66c-0.59,0-1.17-0.09-1.71-0.27c-1.7-0.55-3.07-1.92-3.98-3.95c-2.18-4.88-1.41-12.62,0.54-17
			c2.3-5.17,6.51-6.26,9.12-6.11L27.28,2.57c0.3-0.95,0.81-1.61,1.51-1.96c0.46-0.23,1.22-0.43,2.24-0.09
			c1.01,0.31,1.51,0.92,1.74,1.37c0.36,0.7,0.38,1.53,0.08,2.46l-13.84,42.8c2.21,1.4,4.98,4.75,3.82,10.29
			c-0.98,4.69-4.89,11.41-9.51,14.09C12.02,72.28,10.72,72.66,9.49,72.66z M12.97,47.68c-1.6,0-4.66,0.59-6.51,4.72
			C4.7,56.34,4.07,63.34,5.92,67.5c0.64,1.44,1.5,2.34,2.57,2.68s2.3,0.12,3.65-0.66c3.93-2.28,7.52-8.34,8.4-12.55l0,0
			c1.27-6.06-3.21-8.08-3.4-8.17l-0.97-0.42l0.32-1.01L30.63,3.66c0.15-0.45,0.1-0.63,0.07-0.69c-0.04-0.08-0.18-0.16-0.39-0.22
			c-0.22-0.08-0.39-0.09-0.47-0.05c-0.06,0.03-0.2,0.14-0.34,0.57L15.04,48.01l-1.04-0.24C13.94,47.76,13.55,47.68,12.97,47.68z"/>
	</g>
</g>
</svg>
